<?xml version="1.0" encoding="iso-8859-1"?>
<!-- Generator: Adobe Illustrator 18.0.0, SVG Export Plug-In . SVG Version: 6.00 Build 0)  -->
<!DOCTYPE svg PUBLIC "-//W3C//DTD SVG 1.1//EN" "http://www.w3.org/Graphics/SVG/1.1/DTD/svg11.dtd">
<svg version="1.1" id="Layer_1" xmlns="http://www.w3.org/2000/svg" xmlns:xlink="http://www.w3.org/1999/xlink" x="0px" y="0px"
	 viewBox="0 0 687.524 267.328" xml:space="preserve">
<path style="fill:#FFFFFF;" d="M127.653,224.039c0,1.152-0.579,1.731-1.731,1.731l-23.538,3.808h-0.346
	c-0.808,0-1.328-0.346-1.558-1.038l-39.807-78.402l-5.538,10.904l-0.346,65.94c1.731-0.233,3.634-0.519,5.712-0.865
	c2.077-0.346,3.98-0.519,5.711-0.519c1.269,0,1.904,0.633,1.904,1.904c0,1.152-0.579,1.845-1.731,2.077l-30.288,3.461h-0.174
	c-1.271,0-1.904-0.635-1.904-1.904c0-1.271,0.576-1.904,1.731-1.904l9.865-1.211L36.271,73.64l-0.559-5.937
	c-0.576,0-15.187-5.229-15.187-5.229l45.313,0.001c0.576-0.113-10.457,3.984-10.457,3.984l-0.245,86.103l41.883-81.344
	c-1.847,0.233-3.728-0.089-5.689,0.197c-1.963,0.29-6.35,0.746-8.194,0.746c-1.271,0,32.996-4.751,34.305-4.751
	c1.271,0-15.923,3.461-15.923,3.461l-32.018,62.306l41.364,91.209c0.806-0.117,1.904-0.319,3.288-0.606
	c1.384-0.29,2.826-0.549,4.327-0.779c1.498-0.233,2.912-0.463,4.24-0.692c1.325-0.232,2.336-0.346,3.029-0.346
	c0.576,0,1.038,0.2,1.385,0.606C127.48,222.971,127.653,223.461,127.653,224.039z"/>
<path style="fill:#FFFFFF;" d="M164.268,204.282c0,0.86-0.432,1.292-1.292,1.292l-51.816,3.36c-0.432,0.085-0.798-0.022-1.098-0.323
	c-0.303-0.303-0.453-0.668-0.453-1.098c0-0.775,0.473-1.25,1.422-1.421l10.596-0.646l-5.298-115.521l-10.337,0.517
	c-0.43,0.087-0.795,0-1.098-0.259c-0.301-0.258-0.453-0.602-0.453-1.033c0-0.43,0.13-0.795,0.388-1.098
	c0.258-0.301,0.604-0.453,1.034-0.453l56.206-2.713c0.949,0,1.426,0.474,1.426,1.421l-0.129,15.248
	c-0.182,0.949-0.721,1.421-1.617,1.421c-0.451,0-0.787-0.149-1.012-0.452c-0.226-0.301-0.384-0.666-0.472-1.098l-1.034-13.568
	l-28.557,1.421l-0.904,92.133l21.967-1.551h0.129c0.43,0,0.775,0.149,1.033,0.452c0.259,0.301,0.388,0.666,0.388,1.099
	c0,0.86-0.474,1.292-1.421,1.292l-22.096,1.55l-0.259,20.675l31.141-2.067l1.292-10.337c0-0.862,0.473-1.292,1.422-1.292
	c0.947,0,1.421,0.472,1.421,1.421L164.268,204.282z"/>
<path style="fill:#FFFFFF;" d="M213.511,104.999c0,0.626-0.365,1.007-1.091,1.145l-7.307,0.545l-1.418,93.579
	c0,0.799-0.4,1.2-1.2,1.2c-0.583,0-0.946-0.256-1.091-0.763l-31.957-89.326l3.708,77.329c1.236-0.073,2.544-0.182,3.926-0.327
	c1.38-0.146,2.727-0.218,4.036-0.218c0.799,0,1.2,0.399,1.2,1.2c0,0.654-0.4,1.053-1.2,1.2l-18.978,1.527h-0.109
	c-0.365,0-0.655-0.128-0.873-0.382c-0.218-0.256-0.327-0.564-0.327-0.927c0-0.654,0.363-1.055,1.091-1.2l8.616-0.655l-4.035-85.072
	c-1.019,0.147-2.345,0.382-3.981,0.709c-1.636,0.327-2.926,0.489-3.872,0.489c-0.363,0-0.636-0.126-0.818-0.38
	c-0.18-0.254-0.273-0.562-0.273-0.927c0-0.3,0.109-0.562,0.327-0.787c0.218-0.225,0.436-0.339,0.654-0.339l15.378-2.363h0.217
	c0.508,0,0.869,0.256,1.087,0.763l26.399,74.384l0.982-68.494c-1.237,0.147-2.492,0.291-3.763,0.436
	c-1.273,0.147-2.528,0.218-3.763,0.218c-0.801,0-1.2-0.388-1.2-1.166c0-0.777,0.363-1.166,1.091-1.166l17.233-1.377h0.109
	c0.363-0.071,0.654,0.014,0.872,0.259C213.402,104.358,213.511,104.653,213.511,104.999z"/>
<path style="fill:#FFFFFF;" d="M265.888,104.173c0,0.862-0.474,1.292-1.421,1.292c-0.949,0-1.422-0.473-1.422-1.422l-0.387-14.343
	l-16.927,0.517l-2.326,114.1c1.464-0.174,2.992-0.323,4.587-0.453c1.593-0.129,3.121-0.193,4.587-0.193
	c0.947,0,1.421,0.472,1.421,1.421c0,0.947-0.474,1.421-1.421,1.421l-28.299,2.067h-0.129c-0.949,0-1.421-0.474-1.421-1.421
	c0-0.949,0.472-1.421,1.421-1.421l12.405-0.905L232.96,90.605l-16.306,0.517l-0.386,14.602c-0.182,0.949-0.676,1.421-1.484,1.421
	c-0.898,0-1.436-0.472-1.617-1.421L212.65,89.83c0-0.947,0.474-1.421,1.422-1.421l51.041-1.68c0.43-0.085,0.775,0.022,1.034,0.323
	c0.259,0.303,0.388,0.668,0.388,1.098L265.888,104.173z"/>
<path style="fill:#FFFFFF;" d="M358.324,205.093c-0.695,0.316,0.781-2.024,0.629-2.482l-23.716-46.71l-3.668,7.221l8.369,91.691
	c0.002,0.054,2.993-0.249,4.796,0.36c2.364,0.798,1.58,1.283,1.156,1.369l-25.122,1.185l-0.165-1.31l7.411-1.647l-8.935-149.523
	l-6.303,0.344c-0.382,0-0.705-0.115-0.974-0.344c-0.267-0.229-0.401-0.534-0.401-0.917c0-0.84,0.383-1.261,1.146-1.261l26.015-1.49
	c0.382-0.075,0.706,0,0.974,0.229c0.267,0.229,0.401,0.535,0.401,0.917c0,0.765-0.421,1.223-1.261,1.375l-6.876,0.344l-0.23,53.062
	l26.417-51.304c0.019-0.036-0.016-0.078-0.056-0.073c-1.14,0.145-1.261,0.175-2.483,0.354c-1.255,0.185-2.563,0.41-3.745,0.416
	c-0.779,0.004-0.772-1.715-0.077-1.855l19.711-2.505c0.798,0.388,1.63,0.793,2.428,1.182l6.569,10.996
	c0.793,0-8.797-10.419-9.492-10.419l-9.847,1.626c-0.034,0.004,0.016-0.03,0,0l-19.911,38.747c0,0,24.459,55.358,25.375,55.169
	c0.916-0.192,8.467-3.262,9.348-3.414c0.877-0.154,1.996,1.156,2.456,1.156C378.641,197.581,359.939,204.36,358.324,205.093z"/>
<path style="fill:#FFFFFF;" d="M386.453,180.699c0,0.862-0.13,1.767-0.388,2.713c-0.258,0.947-0.646,1.809-1.163,2.584
	c-0.517,0.776-1.163,1.399-1.938,1.874c-0.775,0.472-1.679,0.71-2.713,0.71c-1.034,0-1.918-0.258-2.649-0.775
	c-0.733-0.517-1.337-1.185-1.809-2.003c-0.474-0.82-0.84-1.702-1.099-2.649c-0.258-0.947-0.388-1.852-0.388-2.714
	c0-0.86,0.13-1.744,0.388-2.649c0.258-0.904,0.646-1.744,1.163-2.52c0.517-0.775,1.163-1.399,1.938-1.874
	c0.776-0.472,1.68-0.71,2.714-0.71c1.034,0,1.916,0.258,2.649,0.775c0.731,0.517,1.334,1.163,1.809,1.938
	c0.473,0.775,0.84,1.638,1.099,2.584C386.324,178.935,386.453,179.839,386.453,180.699z"/>
<path style="fill:#FFFFFF;" d="M466.387,80.762l-1.528,29.722c0.016,0.814-0.422,1.28-1.313,1.397
	c-0.982,0.129-1.535-0.295-1.664-1.277c-0.059-0.445-0.063-1.329-0.009-2.652c0.051-1.32,0.13-2.783,0.238-4.385
	c0.106-1.6,0.221-3.135,0.347-4.603c0.123-1.466,0.189-2.519,0.197-3.155c-1.67-0.958-3.285-1.698-4.85-2.218
	c-1.564-0.519-3.329-0.65-5.289-0.392c-4.994,0.658-9.094,2.582-12.301,5.769c-3.209,3.19-5.797,6.953-7.764,11.293
	c-1.969,4.341-3.376,8.971-4.225,13.889c-0.849,4.92-1.366,9.431-1.55,13.536c-0.258,4.931-0.252,9.807,0.02,14.622
	c0.271,4.817,0.725,9.631,1.359,14.446c0.446,3.389,1.088,7.226,1.925,11.514c0.837,4.288,1.985,8.535,3.447,12.742
	c1.459,4.206,3.293,8.137,5.498,11.792c2.203,3.655,4.852,6.548,7.945,8.681c1.4,0.993,2.907,1.77,4.524,2.329
	c1.614,0.557,3.313,0.72,5.097,0.485l0.936-0.123c1.349-0.088,2.649-0.372,3.901-0.854c1.25-0.483,2.465-1.073,3.644-1.772
	c-0.125-0.256-0.481-0.889-1.067-1.9c-0.588-1.011-1.18-2.068-1.777-3.167c-0.599-1.101-1.162-2.115-1.693-3.042
	c-0.531-0.929-0.807-1.482-0.831-1.659c-0.129-0.982,0.295-1.535,1.277-1.665c0.623-0.082,1.111,0.17,1.46,0.76
	c0.224,0.332,0.659,1.047,1.302,2.141c0.642,1.093,1.382,2.403,2.217,3.925c0.835,1.522,1.746,3.103,2.733,4.742
	c0.986,1.639,1.891,3.173,2.716,4.608c0.822,1.433,1.507,2.658,2.048,3.676c0.542,1.017,0.82,1.569,0.831,1.659
	c0.059,0.445-0.051,0.823-0.327,1.132c-0.278,0.309-0.638,0.492-1.084,0.551c-0.535,0.07-1.023-0.184-1.46-0.76l-4.79-8.484
	c-2.766,1.725-5.665,2.787-8.695,3.186l-1.07,0.141c-4.582,0.331-8.661-0.335-12.235-1.994c-3.575-1.662-6.738-3.989-9.489-6.981
	c-2.754-2.994-5.135-6.445-7.145-10.35c-2.011-3.908-3.703-7.971-5.074-12.188c-1.372-4.217-2.491-8.4-3.353-12.55
	c-0.865-4.148-1.519-7.916-1.965-11.305c-0.575-4.367-1.022-8.957-1.337-13.768c-0.317-4.809-0.384-9.63-0.204-14.462
	c0.18-4.83,0.642-9.584,1.386-14.263c0.744-4.677,1.882-9.112,3.417-13.306c0.931-2.571,2.096-5.082,3.497-7.535
	c1.399-2.45,3.056-4.688,4.967-6.708c1.91-2.02,4.046-3.706,6.408-5.061c2.359-1.352,5.012-2.225,7.954-2.612
	c3.744-0.493,7.263-0.117,10.556,1.127c3.293,1.246,6.163,3.248,8.614,6.008l0.615-10.828c0.072-0.826,0.51-1.292,1.312-1.397
	c0.98-0.129,1.536,0.297,1.665,1.277L466.387,80.762z"/>
<path style="fill:#FFFFFF;" d="M513.76,112.511c0,0.341-0.102,0.629-0.306,0.867c-0.204,0.239-0.477,0.357-0.816,0.357l-5.303,0.408
	l-6.222,91.689c0.952-0.068,1.887-0.153,2.805-0.255c0.918-0.102,1.819-0.153,2.703-0.153c0.747,0,1.121,0.373,1.121,1.122
	c0,0.612-0.341,0.985-1.02,1.122l-17.236,1.53h-0.102c-0.341,0.067-0.612-0.018-0.815-0.255c-0.204-0.239-0.306-0.528-0.306-0.867
	c0-0.612,0.339-0.986,1.02-1.122l7.139-0.612l0.102-16.727l-19.284,1.455l-0.094,14.252c0.748-0.068,1.546-0.153,2.397-0.255
	c0.849-0.102,1.648-0.153,2.397-0.153c0.747,0,1.121,0.373,1.121,1.122c0,0.748-0.341,1.122-1.02,1.122l-17.135,1.632h-0.102
	c-0.749,0-1.122-0.374-1.122-1.122c0-0.749,0.339-1.122,1.02-1.122l6.222-0.612l-4.182-91.995l-6.935,0.306
	c-0.339,0-0.627-0.084-0.867-0.255c-0.238-0.169-0.357-0.424-0.357-0.765c0-0.816,0.375-1.224,1.122-1.224l23.559-1.122
	c0.748,0,1.122,0.374,1.122,1.122c0,0.681-0.341,1.088-1.02,1.224l-5.303,0.204l-0.869,75.548l19.431-1.707l0.612-72.515
	l-6.528,0.408c-0.272,0.069-0.545,0-0.816-0.204c-0.272-0.204-0.408-0.475-0.408-0.816c0-0.679,0.373-1.087,1.122-1.224
	l21.928-1.428c0.271-0.067,0.543,0,0.815,0.204C513.622,111.899,513.76,112.172,513.76,112.511z"/>
<path style="fill:#FFFFFF;" d="M601.376,88.178c0.056,0.662-0.295,1.098-1.05,1.309l-7.678,1.235l6.926,99.086
	c0.072,0.845,1.218,6.842,0.373,6.914c-0.616,0.052-2.557-5.723-2.756-6.247l-42.696-91.583l10.883,81.44
	c2.161-0.189,3.535-0.422,4.984-0.7c1.447-0.279,2.864-0.476,4.248-0.594c0.845-0.072,1.304,0.314,1.376,1.161
	c0.059,0.692-0.329,1.15-1.16,1.377l-19.931,3.323l-0.115,0.01c-0.386,0.033-2.416,0.392-2.669,0.143
	c-0.254-0.251-0.466-0.812-0.498-1.196c-0.059-0.692,2.07-1.371,2.826-1.59l9.053-1.468l-11.927-89.599
	c-1.064,0.247-2.445,0.615-4.146,1.108c-1.701,0.493-3.05,0.781-4.051,0.866c-0.384,0.033-0.683-0.076-0.899-0.328
	c-0.214-0.252-0.339-0.57-0.372-0.956c-0.027-0.317,0.065-0.605,0.275-0.862c0.21-0.258,0.43-0.398,0.662-0.418l16.049-3.884
	l0.229-0.02c0.537-0.046,0.942,0.192,1.218,0.709l34.614,76.283l-5.129-72.52c-1.295,0.266-2.609,0.533-3.94,0.8
	c-1.333,0.27-2.653,0.458-3.959,0.569c-0.847,0.072-1.304-0.303-1.374-1.125s0.279-1.265,1.048-1.331l18.099-3.008l0.115-0.01
	c0.378-0.108,0.694-0.044,0.946,0.196S601.345,87.813,601.376,88.178z"/>
<path style="fill:#FFFFFF;" d="M666.627,187.632c0,1.033-0.474,1.55-1.421,1.55h-9.951v1.68c0.085,3.101-0.173,6.18-0.775,9.239
	c-0.604,3.057-1.638,5.835-3.102,8.334c-1.466,2.498-3.424,4.523-5.879,6.073c-2.456,1.551-5.492,2.326-9.11,2.326
	c-3.618,0-6.849-1.056-9.691-3.166c-2.843-2.112-5.32-4.89-7.43-8.335c-2.112-3.446-3.899-7.323-5.363-11.63
	c-1.465-4.309-2.648-8.615-3.553-12.922c-0.904-4.306-1.55-8.442-1.938-12.405c-0.387-3.962-0.581-7.279-0.581-9.95
	c0-4.22,0.15-8.613,0.453-13.18c0.3-4.565,0.84-9.13,1.615-13.697c0.775-4.565,1.809-9.045,3.101-13.439s2.928-8.484,4.91-12.276
	c1.206-2.326,2.626-4.565,4.264-6.719c1.635-2.152,3.489-4.048,5.557-5.686c2.067-1.635,4.306-2.95,6.719-3.941
	c2.41-0.989,5.039-1.486,7.882-1.486c3.618,0,6.914,0.798,9.886,2.39c2.972,1.595,5.447,3.856,7.43,6.784l1.938-10.337
	c0.172-0.775,0.646-1.163,1.421-1.163c0.947,0,1.422,0.474,1.422,1.421v0.388l-5.169,28.04c-0.173,0.775-0.646,1.163-1.422,1.163
	c-0.949,0-1.421-0.472-1.421-1.421c0-0.43,0.107-1.292,0.323-2.584c0.214-1.292,0.472-2.692,0.775-4.2
	c0.301-1.506,0.602-2.95,0.905-4.329c0.3-1.377,0.495-2.326,0.581-2.843c-1.466-1.205-2.907-2.132-4.329-2.778
	c-1.421-0.646-3.081-0.969-4.974-0.969c-4.739,0-8.832,1.034-12.276,3.101c-3.447,2.067-6.377,4.803-8.787,8.205
	c-2.413,3.404-4.374,7.301-5.88,11.694c-1.508,4.393-2.671,8.851-3.489,13.374c-0.82,4.523-1.357,8.981-1.615,13.374
	c-0.258,4.393-0.388,8.315-0.388,11.759c0,3.533,0.107,7.624,0.323,12.276c0.214,4.652,0.711,9.326,1.486,14.02
	c0.776,4.694,1.895,9.195,3.36,13.503c1.464,4.307,3.402,7.882,5.815,10.725c0.517,0.689,1.27,1.486,2.261,2.39
	c0.989,0.904,1.916,1.442,2.778,1.615c1.034,0.258,2.068,0.388,3.102,0.388c2.756,0,4.995-0.604,6.719-1.809
	c1.722-1.208,3.079-2.758,4.07-4.652c0.989-1.896,1.68-4.006,2.068-6.332c0.388-2.326,0.581-4.61,0.581-6.849
	c0-0.949-0.022-1.831-0.065-2.649c-0.044-0.82-0.109-1.66-0.193-2.52h-11.63c-0.949,0-1.422-0.517-1.422-1.55
	c0-0.949,0.473-1.421,1.422-1.421h27.265C666.152,186.211,666.627,186.683,666.627,187.632z"/>
<polygon style="fill:#FFFFFF;" points="210.363,229.025 207.478,241.569 207.539,228.698 199.178,234.623 207.13,227.74 
	200.604,225.683 207.428,225.173 201.261,216.653 208.03,224.462 210.93,211.79 210.854,224.789 219.231,218.736 211.278,225.619 
	217.804,227.676 210.981,228.186 217.148,236.706 "/>
<path style="fill:#FFFFFF;" d="M563.016,201.536c-0.936,0.045-1.886,0.164-2.85,0.361c-0.965,0.195-1.912,0.388-2.84,0.583
	L528.66,101.595c-0.244-0.583-0.655-0.861-1.23-0.833c-0.648,0.031-1.028,0.384-1.139,1.059l-11.807,102.948l-6.682,0.545
	c-0.784,0.186-1.159,0.65-1.123,1.393c0.018,0.37,0.159,0.661,0.421,0.872l18.674-1.604c0.142-0.21,0.214-0.493,0.196-0.867
	c-0.039-0.817-0.455-1.205-1.247-1.167l-7.864,0.714l1.954-16.15l24.467-3.201l5.142,18.721l-5.905,0.954
	c-0.713,0.182-1.053,0.608-1.02,1.276c0.046,0.963,0.461,1.353,1.247,1.167l0.108-0.005l20.392-3.437
	c0.711-0.184,1.053-0.608,1.021-1.276C564.224,201.886,563.808,201.498,563.016,201.536z M518.883,186.214l7.026-60.901
	l17.02,57.764L518.883,186.214z"/>
<polygon style="fill:#FFFFFF;" points="667.744,61.065 676.379,59.184 668.368,62.915 674.496,66.373 667.893,63.45 668.526,68.105 
	666.211,64.017 662.726,70.341 665.593,63.85 656.874,65.76 664.97,62.001 658.758,58.571 665.361,61.494 664.728,56.839 
	667.042,60.927 670.528,54.603 "/>
<polygon style="fill:#FFFFFF;" points="42.314,30.384 50.11,40.626 40.256,32.345 39.461,42.562 39.258,32.046 33.502,35.746 
	37.475,30.176 26.981,29.465 37.314,29.257 29.429,18.922 39.372,27.296 40.078,16.986 40.281,27.501 46.037,23.801 42.064,29.372 
	52.558,30.082 "/>
</svg>
